<?xml version="1.0" encoding="utf-8"?>
<!-- Generator: Adobe Illustrator 21.1.0, SVG Export Plug-In . SVG Version: 6.00 Build 0)  -->
<!DOCTYPE svg PUBLIC "-//W3C//DTD SVG 1.1//EN" "http://www.w3.org/Graphics/SVG/1.1/DTD/svg11.dtd">
<svg version="1.1" id="Layer_1" xmlns="http://www.w3.org/2000/svg" xmlns:xlink="http://www.w3.org/1999/xlink" x="0px" y="0px"
	 viewBox="0 0 64 64" style="enable-background:new 0 0 64 64;" xml:space="preserve">
<style type="text/css">
	.st0{fill:#FFFFFF;}
</style>
<g>
	<g>
		<path class="st0" d="M23.6,61.7c-3.2,0-5.8-2.9-5.8-6.4s2.6-6.4,5.8-6.4c3.2,0,5.8,2.9,5.8,6.4S26.8,61.7,23.6,61.7z M23.6,50.7
			c-2.1,0-3.9,2-3.9,4.5c0,2.5,1.7,4.5,3.9,4.5c2.1,0,3.9-2,3.9-4.5C27.4,52.7,25.7,50.7,23.6,50.7z"/>
	</g>
	<g>
		<path class="st0" d="M40.5,61.7c-3.2,0-5.8-2.9-5.8-6.4s2.6-6.4,5.8-6.4c3.2,0,5.8,2.9,5.8,6.4S43.6,61.7,40.5,61.7z M40.5,50.7
			c-2.1,0-3.9,2-3.9,4.5c0,2.5,1.7,4.5,3.9,4.5c2.1,0,3.9-2,3.9-4.5C44.3,52.7,42.6,50.7,40.5,50.7z"/>
	</g>
	<g>
		<polygon class="st0" points="25.3,50.2 23.6,49.4 31.1,33.6 35.2,12.3 30.3,20.7 28.6,19.8 39.1,1.6 32.9,34.3 		"/>
	</g>
	<g>
		<polygon class="st0" points="38.7,50.2 31.1,34.1 31.1,34 24.9,1.7 32.8,15.1 31.1,16.1 28.9,12.2 32.9,33.6 40.4,49.4 		"/>
	</g>
	<g>
		<path class="st0" d="M11.9,43c-0.5,0-1-0.4-1-1v-15c0-0.5,0.4-1,1-1s1,0.4,1,1v15C12.9,42.6,12.5,43,11.9,43z"/>
	</g>
	<g>
		<path class="st0" d="M17,43c-0.5,0-1-0.4-1-1v-15c0-0.5,0.4-1,1-1c0.5,0,1,0.4,1,1v15C17.9,42.6,17.5,43,17,43z"/>
	</g>
	<g>
		<path class="st0" d="M22.1,43c-0.5,0-1-0.4-1-1v-15c0-0.5,0.4-1,1-1c0.5,0,1,0.4,1,1v15C23,42.6,22.6,43,22.1,43z"/>
	</g>
	<g>
		<path class="st0" d="M26.9,27.4H11.4c-0.5,0-1-0.4-1-1c0-0.5,0.4-1,1-1h15.5c0.5,0,1,0.4,1,1C27.9,26.9,27.4,27.4,26.9,27.4z"/>
	</g>
	<g>
		<path class="st0" d="M52.1,43c-0.5,0-1-0.4-1-1v-15c0-0.5,0.4-1,1-1c0.5,0,1,0.4,1,1v15C53.1,42.6,52.6,43,52.1,43z"/>
	</g>
	<g>
		<path class="st0" d="M47,43c-0.5,0-1-0.4-1-1v-15c0-0.5,0.4-1,1-1c0.5,0,1,0.4,1,1v15C48,42.6,47.6,43,47,43z"/>
	</g>
	<g>
		<path class="st0" d="M42,43c-0.5,0-1-0.4-1-1v-15c0-0.5,0.4-1,1-1c0.5,0,1,0.4,1,1v15C42.9,42.6,42.5,43,42,43z"/>
	</g>
	<g>
		<path class="st0" d="M52.6,27.4H37.1c-0.5,0-1-0.4-1-1c0-0.5,0.4-1,1-1h15.5c0.5,0,1,0.4,1,1C53.6,26.9,53.1,27.4,52.6,27.4z"/>
	</g>
</g>
</svg>
