<?xml version="1.0" encoding="utf-8"?>
<!-- Generator: Adobe Illustrator 21.1.0, SVG Export Plug-In . SVG Version: 6.00 Build 0)  -->
<!DOCTYPE svg PUBLIC "-//W3C//DTD SVG 1.1//EN" "http://www.w3.org/Graphics/SVG/1.1/DTD/svg11.dtd">
<svg version="1.1" id="Layer_1" xmlns="http://www.w3.org/2000/svg" xmlns:xlink="http://www.w3.org/1999/xlink" x="0px" y="0px"
	 viewBox="0 0 64 64" style="enable-background:new 0 0 64 64;" xml:space="preserve">
<style type="text/css">
	.st0{fill:#FFFFFF;}
</style>
<g>
	<g>
		<path class="st0" d="M52.8,42.6H15.9L8.1,6.2C7.9,5.2,8.1,4,8.7,3.1c0.6-0.9,1.6-1.5,2.7-1.7l1.7-0.3c2.1-0.3,4.1,1.1,4.6,3.2
			l3.4,16.3h21.3c1.8,0,3.4,1.2,3.9,3l2.5,9.1l0.2,0c2.2,0.1,3.9,1.8,3.9,4V42.6z M17.7,40.4h32.9v-3.8c0-1-0.8-1.8-1.7-1.8
			l-27.2-0.7L15.5,4.8c-0.2-1-1.1-1.6-2.1-1.5l-1.7,0.3c-0.5,0.1-1,0.4-1.2,0.8c-0.3,0.4-0.4,0.9-0.3,1.4L17.7,40.4z M23.5,32
			l23,0.6l-2.3-8.5c-0.2-0.8-0.9-1.4-1.8-1.4H21.5L23.5,32z"/>
	</g>
	<g>
		<path class="st0" d="M52.8,62.5H15.9v-1.1c0-2.4,1.9-4.3,4.3-4.3h28.2c2.4,0,4.3,1.9,4.3,4.3V62.5z M18.3,60.3h32
			c-0.4-0.6-1.1-1.1-1.9-1.1H20.2C19.4,59.2,18.7,59.7,18.3,60.3z"/>
	</g>
	<g>
		<path class="st0" d="M39,59.2h-9.3v-6H39V59.2z M31.9,57h4.9v-1.7h-4.9V57z"/>
	</g>
	<g>
		<rect x="33" y="42.5" class="st0" width="2.2" height="11.1"/>
	</g>
	<g>
		<path class="st0" d="M48.4,55.1h7c0.6,0,1.1-0.5,1.1-1.1s-0.5-1.1-1.1-1.1h-6.1l-1.6-11.4c-0.1-0.6-0.7-0.9-1.3-0.8
			c-0.6,0.1-0.9,0.7-0.8,1.3l1.8,12.2C47.5,54.7,47.9,55.1,48.4,55.1z"/>
	</g>
</g>
</svg>
