<?xml version="1.0" encoding="utf-8"?>
<!-- Generator: Adobe Illustrator 21.1.0, SVG Export Plug-In . SVG Version: 6.00 Build 0)  -->
<!DOCTYPE svg PUBLIC "-//W3C//DTD SVG 1.1//EN" "http://www.w3.org/Graphics/SVG/1.1/DTD/svg11.dtd">
<svg version="1.1" id="Layer_1" xmlns="http://www.w3.org/2000/svg" xmlns:xlink="http://www.w3.org/1999/xlink" x="0px" y="0px"
	 viewBox="0 0 64 64" style="enable-background:new 0 0 64 64;" xml:space="preserve">
<style type="text/css">
	.st0{fill:#FFFFFF;}
</style>
<g>
	<path class="st0" d="M19.5,12.2c1.1,0,2.3,0.2,3.4,0.5l2.4,0.7l0,0l19.9,5.6v5.4v5.4L27,34.9l-1.9,0.5l-0.2,2l-0.5,3.7l-4.8,3.1
		l-1.4,0.9v1.6v9h-7.4c-1-1.9-2.5-6.4-0.6-10.1c1.8-3.5,2.3-7.3,2.4-9.8l0.1-1.4l-1.1-0.9c-2.6-2.3-4.2-5.7-4.2-9.2
		C7.3,17.6,12.7,12.2,19.5,12.2 M19.5,32.9c4.7,0,8.6-3.8,8.6-8.6c0-4.7-3.8-8.6-8.6-8.6s-8.6,3.8-8.6,8.6
		C10.9,29.1,14.7,32.9,19.5,32.9 M19.5,9.2C11.1,9.2,4.3,16,4.3,24.3c0,4.6,2,8.6,5.2,11.4c-0.1,2.4-0.6,5.6-2.1,8.6
		c-2.9,5.8,0.1,13,1.8,14.4h11.9v-12l6-3.9l0.6-5.1l20.3-5.7v-7.7v-7.7L23.7,9.8l0,0C22.3,9.4,20.9,9.2,19.5,9.2L19.5,9.2z
		 M19.5,29.9c-3.1,0-5.6-2.5-5.6-5.6c0-3.1,2.5-5.6,5.6-5.6s5.6,2.5,5.6,5.6C25,27.4,22.5,29.9,19.5,29.9L19.5,29.9z"/>
	<g>
		<path class="st0" d="M53.9,20.8c-2,0-3-0.8-3.2-0.9l1.6-1.9l0,0c0.1,0,1.3,0.9,4.3-0.2c4.6-1.7,6.3,0.5,6.5,0.8l-2,1.4
			c0,0,0,0,0,0.1c0,0-0.9-1-3.7,0.1C56.1,20.6,54.9,20.8,53.9,20.8z"/>
	</g>
	<g>
		<path class="st0" d="M53.9,26.1c-2,0-3-0.8-3.2-0.9l1.6-1.9l0,0c0.1,0,1.3,0.9,4.3-0.2c4.6-1.7,6.3,0.5,6.5,0.8l-2,1.4
			c0,0,0,0,0,0.1c0,0-0.9-1-3.7,0.1C56.1,26,54.9,26.1,53.9,26.1z"/>
	</g>
	<g>
		<path class="st0" d="M53.9,31.5c-2,0-3-0.8-3.2-0.9l1.6-1.9l0,0c0.1,0,1.3,0.9,4.3-0.2c4.6-1.7,6.3,0.5,6.5,0.8l-2,1.4
			c0,0,0,0,0,0.1c0,0-0.9-1-3.7,0.1C56.1,31.3,54.9,31.5,53.9,31.5z"/>
	</g>
</g>
</svg>
